<svg width="80" height="24" viewBox="0 0 80 24" fill="none" xmlns="http://www.w3.org/2000/svg">
<g clip-path="url(#clip0_214_149)">
<g clip-path="url(#clip1_214_149)">
<path d="M1.66675 12.0003H18.3334M1.66675 12.0003C1.66675 16.6027 5.39771 20.3337 10.0001 20.3337M1.66675 12.0003C1.66675 7.39795 5.39771 3.66699 10.0001 3.66699M18.3334 12.0003C18.3334 16.6027 14.6025 20.3337 10.0001 20.3337M18.3334 12.0003C18.3334 7.39795 14.6025 3.66699 10.0001 3.66699M10.0001 3.66699C12.0845 5.94895 13.269 8.91035 13.3334 12.0003C13.269 15.0903 12.0845 18.0517 10.0001 20.3337M10.0001 3.66699C7.91568 5.94895 6.73112 8.91035 6.66675 12.0003C6.73112 15.0903 7.91568 18.0517 10.0001 20.3337" stroke="#667085" stroke-width="2" stroke-linecap="round" stroke-linejoin="round"/>
</g>
<path d="M25.104 18V6.8H32.24V8.544H27.04V11.488H31.792V13.232H27.04V16.256H32.32V18H25.104ZM34.0586 18V10.096H35.8666V11.2H36.1386C36.2773 10.9013 36.528 10.6187 36.8906 10.352C37.2533 10.0853 37.8026 9.952 38.5386 9.952C39.1466 9.952 39.6853 10.0907 40.1546 10.368C40.624 10.6453 40.9866 11.0293 41.2426 11.52C41.5093 12.0107 41.6426 12.592 41.6426 13.264V18H39.8026V13.408C39.8026 12.768 39.6426 12.2933 39.3226 11.984C39.0133 11.664 38.5706 11.504 37.9946 11.504C37.344 11.504 36.832 11.7227 36.4586 12.16C36.0853 12.5867 35.8986 13.2 35.8986 14V18H34.0586ZM43.5184 14.08V13.84C43.5184 13.008 43.6837 12.2987 44.0144 11.712C44.345 11.1147 44.7877 10.6613 45.3424 10.352C45.897 10.032 46.505 9.872 47.1664 9.872C47.913 9.872 48.4784 10.0053 48.8624 10.272C49.257 10.5387 49.545 10.8267 49.7264 11.136H49.9984V10.096H51.7904V19.504C51.7904 20.0267 51.641 20.4373 51.3424 20.736C51.0437 21.0453 50.6384 21.2 50.1264 21.2H44.8144V19.6H49.5024C49.8117 19.6 49.9664 19.44 49.9664 19.12V16.832H49.6944C49.577 17.0133 49.417 17.2 49.2144 17.392C49.0117 17.5733 48.745 17.728 48.4144 17.856C48.0837 17.984 47.6677 18.048 47.1664 18.048C46.505 18.048 45.897 17.8933 45.3424 17.584C44.7877 17.264 44.345 16.8107 44.0144 16.224C43.6837 15.6267 43.5184 14.912 43.5184 14.08ZM47.6784 16.432C48.3397 16.432 48.889 16.224 49.3264 15.808C49.7637 15.3813 49.9824 14.7893 49.9824 14.032V13.872C49.9824 13.104 49.7637 12.512 49.3264 12.096C48.8997 11.68 48.3504 11.472 47.6784 11.472C47.017 11.472 46.4624 11.68 46.0144 12.096C45.577 12.512 45.3584 13.104 45.3584 13.872V14.032C45.3584 14.7893 45.577 15.3813 46.0144 15.808C46.4624 16.224 47.017 16.432 47.6784 16.432ZM54.1211 18V6.8H55.9611V18H54.1211ZM58.293 18V10.096H60.133V18H58.293ZM59.205 9.088C58.8743 9.088 58.5863 8.98133 58.341 8.768C58.1063 8.544 57.989 8.25067 57.989 7.888C57.989 7.52533 58.1063 7.23733 58.341 7.024C58.5863 6.8 58.8743 6.688 59.205 6.688C59.557 6.688 59.845 6.8 60.069 7.024C60.3037 7.23733 60.421 7.52533 60.421 7.888C60.421 8.25067 60.3037 8.544 60.069 8.768C59.845 8.98133 59.557 9.088 59.205 9.088ZM65.7289 18.224C64.7049 18.224 63.8622 18 63.2009 17.552C62.5395 17.104 62.1395 16.448 62.0009 15.584L63.6969 15.152C63.7715 15.5573 63.9049 15.8773 64.0969 16.112C64.2889 16.3467 64.5235 16.512 64.8009 16.608C65.0889 16.704 65.3982 16.752 65.7289 16.752C66.2302 16.752 66.6035 16.6613 66.8489 16.48C67.1049 16.2987 67.2329 16.0693 67.2329 15.792C67.2329 15.504 67.1102 15.2907 66.8649 15.152C66.6302 15.0133 66.2675 14.896 65.7769 14.8L65.2809 14.72C64.7369 14.6133 64.2409 14.4693 63.7929 14.288C63.3449 14.096 62.9822 13.84 62.7049 13.52C62.4382 13.1893 62.3049 12.7733 62.3049 12.272C62.3049 11.504 62.5875 10.912 63.1529 10.496C63.7289 10.08 64.4809 9.872 65.4089 9.872C66.2942 9.872 67.0249 10.0693 67.6009 10.464C68.1769 10.8587 68.5502 11.3867 68.7209 12.048L67.0249 12.56C66.9395 12.112 66.7529 11.7973 66.4649 11.616C66.1769 11.424 65.8249 11.328 65.4089 11.328C64.9822 11.328 64.6515 11.4027 64.4169 11.552C64.1929 11.7013 64.0809 11.9147 64.0809 12.192C64.0809 12.4693 64.1982 12.6773 64.4329 12.816C64.6675 12.9547 64.9822 13.056 65.3769 13.12L65.8729 13.216C66.4595 13.3227 66.9875 13.4613 67.4569 13.632C67.9369 13.8027 68.3155 14.048 68.5929 14.368C68.8702 14.688 69.0089 15.12 69.0089 15.664C69.0089 16.4853 68.7102 17.12 68.1129 17.568C67.5262 18.0053 66.7315 18.224 65.7289 18.224ZM70.8711 18V6.8H72.7111V11.136H72.9831C73.0685 10.9547 73.2071 10.7733 73.3991 10.592C73.5911 10.4107 73.8418 10.2613 74.1511 10.144C74.4711 10.0267 74.8711 9.968 75.3511 9.968C75.9591 9.968 76.4978 10.1067 76.9671 10.384C77.4365 10.6507 77.7991 11.0293 78.0551 11.52C78.3218 12.0107 78.4551 12.592 78.4551 13.264V18H76.6151V13.408C76.6151 12.768 76.4551 12.2933 76.1351 11.984C75.8258 11.664 75.3831 11.504 74.8071 11.504C74.1565 11.504 73.6445 11.7227 73.2711 12.16C72.8978 12.5867 72.7111 13.2 72.7111 14V18H70.8711Z" fill="#667085"/>
</g>
<defs>
<clipPath id="clip0_214_149">
<rect width="80" height="24" fill="white"/>
</clipPath>
<clipPath id="clip1_214_149">
<rect width="20" height="20" fill="white" transform="translate(0 2)"/>
</clipPath>
</defs>
</svg>
