<?xml version="1.0" encoding="UTF-8" standalone="no"?>
<svg
   width="102.987"
   height="18.1"
   viewBox="0 0 102.987 18.1"
   fill="none"
   version="1.1"
   id="svg3"
   xmlns="http://www.w3.org/2000/svg"
   xmlns:svg="http://www.w3.org/2000/svg">
  <defs
     id="defs3" />
  <path
     d="M 17,6.4969 H 10.5083 L 8.50313,0 6.49171,6.4969 0,6.4903 5.25728,10.5097 3.24585,17 8.50313,12.9872 13.7541,17 11.749,10.5097 Z"
     fill="#ffffff"
     id="path1" />
  <path
     d="M 12.1999,11.9791 11.7488,10.5098 8.50293,12.9873 Z"
     fill="#d0d5dd"
     id="path2" />
  <path
     d="M 23.212,14.5 V 3.862 H 19.45 V 1.9 h 9.684 V 3.862 H 25.372 V 14.5 Z m 6.4184,0 V 5.608 h 2.034 v 1.026 h 0.306 c 0.132,-0.372 0.354,-0.642 0.666,-0.81 0.312,-0.168 0.684,-0.252 1.116,-0.252 h 1.08 v 1.836 h -1.116 c -0.6,0 -1.086,0.162 -1.458,0.486 -0.372,0.312 -0.558,0.798 -0.558,1.458 V 14.5 Z m 10.4333,0.144 c -0.684,0 -1.29,-0.15 -1.818,-0.45 -0.528,-0.312 -0.936,-0.744 -1.224,-1.296 -0.288,-0.564 -0.432,-1.218 -0.432,-1.962 V 5.608 h 2.052 v 5.166 c 0,0.72 0.174,1.254 0.522,1.602 0.36,0.348 0.864,0.522 1.512,0.522 0.732,0 1.308,-0.24 1.728,-0.72 0.432,-0.48 0.648,-1.17 0.648,-2.07 v -4.5 h 2.052 V 14.5 h -2.016 v -1.242 h -0.306 c -0.156,0.324 -0.444,0.636 -0.864,0.936 -0.408,0.3 -1.026,0.45 -1.854,0.45 z m 11.3442,0.108 c -1.152,0 -2.1,-0.252 -2.844,-0.756 -0.744,-0.504 -1.194,-1.242 -1.35,-2.214 l 1.908,-0.486 c 0.084,0.456 0.234,0.816 0.45,1.08 0.216,0.264 0.48,0.45 0.792,0.558 0.324,0.108 0.672,0.162 1.044,0.162 0.564,0 0.984,-0.102 1.26,-0.306 0.288,-0.204 0.432,-0.462 0.432,-0.774 0,-0.324 -0.138,-0.564 -0.414,-0.72 -0.264,-0.156 -0.672,-0.288 -1.224,-0.396 l -0.558,-0.09 c -0.612,-0.12 -1.17,-0.282 -1.674,-0.486 -0.504,-0.216 -0.912,-0.504 -1.224,-0.864 -0.3,-0.372 -0.45,-0.84 -0.45,-1.404 0,-0.864 0.318,-1.53 0.954,-1.998 0.648,-0.468 1.494,-0.702 2.538,-0.702 0.996,0 1.818,0.222 2.466,0.666 0.648,0.444 1.068,1.038 1.26,1.782 l -1.908,0.576 c -0.096,-0.504 -0.306,-0.858 -0.63,-1.062 -0.324,-0.216 -0.72,-0.324 -1.188,-0.324 -0.48,0 -0.852,0.084 -1.116,0.252 -0.252,0.168 -0.378,0.408 -0.378,0.72 0,0.312 0.132,0.546 0.396,0.702 0.264,0.156 0.618,0.27 1.062,0.342 l 0.558,0.108 c 0.66,0.12 1.254,0.276 1.782,0.468 0.54,0.192 0.966,0.468 1.278,0.828 0.312,0.36 0.468,0.846 0.468,1.458 0,0.924 -0.336,1.638 -1.008,2.142 -0.66,0.492 -1.554,0.738 -2.682,0.738 z M 60.4011,14.5 c -0.576,0 -1.038,-0.168 -1.386,-0.504 -0.336,-0.348 -0.504,-0.816 -0.504,-1.404 V 7.318 h -2.322 v -1.71 h 2.322 V 2.746 h 2.07 v 2.862 h 2.556 v 1.71 h -2.556 v 4.932 c 0,0.36 0.168,0.54 0.504,0.54 h 1.782 v 1.71 z m 4.8426,3.6 V 5.608 h 2.034 v 1.17 h 0.306 c 0.204,-0.372 0.528,-0.702 0.972,-0.99 0.456,-0.288 1.104,-0.432 1.944,-0.432 0.72,0 1.386,0.18 1.998,0.54 0.624,0.348 1.122,0.864 1.494,1.548 0.372,0.684 0.558,1.506 0.558,2.466 v 0.288 c 0,0.96 -0.186,1.782 -0.558,2.466 -0.372,0.684 -0.864,1.206 -1.476,1.566 -0.612,0.348 -1.284,0.522 -2.016,0.522 -0.564,0 -1.038,-0.066 -1.422,-0.198 -0.372,-0.132 -0.678,-0.306 -0.918,-0.522 -0.228,-0.216 -0.408,-0.432 -0.54,-0.648 h -0.306 V 18.1 Z m 4.644,-5.148 c 0.756,0 1.374,-0.24 1.854,-0.72 0.492,-0.492 0.738,-1.188 0.738,-2.088 v -0.18 c 0,-0.912 -0.246,-1.608 -0.738,-2.088 -0.492,-0.48 -1.11,-0.72 -1.854,-0.72 -0.744,0 -1.368,0.24 -1.872,0.72 -0.492,0.48 -0.738,1.176 -0.738,2.088 v 0.18 c 0,0.9 0.246,1.596 0.738,2.088 0.504,0.48 1.128,0.72 1.872,0.72 z M 76.7398,14.5 V 5.608 h 2.07 V 14.5 Z m 1.026,-10.026 c -0.372,0 -0.696,-0.12 -0.972,-0.36 -0.264,-0.252 -0.396,-0.582 -0.396,-0.99 0,-0.408 0.132,-0.732 0.396,-0.972 0.276,-0.252 0.6,-0.378 0.972,-0.378 0.396,0 0.72,0.126 0.972,0.378 0.264,0.24 0.396,0.564 0.396,0.972 0,0.408 -0.132,0.738 -0.396,0.99 -0.252,0.24 -0.576,0.36 -0.972,0.36 z M 81.4331,14.5 V 1.9 h 2.07 v 12.6 z m 8.9054,0.252 c -0.888,0 -1.686,-0.18 -2.394,-0.54 -0.696,-0.372 -1.248,-0.894 -1.656,-1.566 -0.396,-0.684 -0.594,-1.5 -0.594,-2.448 V 9.91 c 0,-0.948 0.198,-1.764 0.594,-2.448 0.408,-0.684 0.96,-1.206 1.656,-1.566 0.708,-0.36 1.506,-0.54 2.394,-0.54 0.888,0 1.68,0.18 2.376,0.54 0.696,0.36 1.242,0.882 1.638,1.566 0.408,0.684 0.612,1.5 0.612,2.448 v 0.288 c 0,0.948 -0.204,1.764 -0.612,2.448 -0.396,0.672 -0.942,1.194 -1.638,1.566 -0.696,0.36 -1.488,0.54 -2.376,0.54 z m 0,-1.836 c 0.756,0 1.374,-0.24 1.854,-0.72 0.48,-0.492 0.72,-1.176 0.72,-2.052 v -0.18 c 0,-0.876 -0.24,-1.554 -0.72,-2.034 -0.48,-0.492 -1.098,-0.738 -1.854,-0.738 -0.756,0 -1.374,0.246 -1.854,0.738 -0.48,0.48 -0.72,1.158 -0.72,2.034 v 0.18 c 0,0.876 0.24,1.56 0.72,2.052 0.48,0.48 1.098,0.72 1.854,0.72 z m 9.9125,1.584 c -0.576,0 -1.0383,-0.168 -1.3863,-0.504 -0.336,-0.348 -0.504,-0.816 -0.504,-1.404 V 7.318 h -2.322 v -1.71 h 2.322 V 2.746 h 2.0703 v 2.862 h 2.556 v 1.71 h -2.556 v 4.932 c 0,0.36 0.168,0.54 0.504,0.54 h 1.782 v 1.71 z"
     fill="#ffffff"
     id="path3" />
</svg>
