<svg width="170" height="40" viewBox="0 0 170 40" fill="none" xmlns="http://www.w3.org/2000/svg">
<path d="M20.0209 1C14.8387 1 10.6448 5.19389 10.6448 10.3761V13.8902C8.82502 14.2196 7 14.6589 7 15.2289V33.568C7 33.568 7 34.0752 7.56999 34.3158C9.63556 35.1525 17.7619 38.0286 19.6287 38.6875C19.8693 38.7763 19.9372 38.7763 20 38.7763C20.0889 38.7763 20.1307 38.7763 20.3713 38.6875C22.2381 38.0286 30.3854 35.1525 32.4509 34.3158C32.9791 34.0961 33 33.5889 33 33.5889V15.2289C33 14.6589 31.2011 14.1987 29.3761 13.8902V10.3761C29.4023 5.19389 25.1822 1 20.0209 1ZM20.0209 5.4815C23.0748 5.4815 24.9208 7.32743 24.9208 10.3813V13.4352C21.4956 13.1947 18.5724 13.1947 15.1263 13.4352V10.3813C15.1263 7.3222 16.9722 5.4815 20.0209 5.4815ZM20 17.9324C24.2619 17.9324 27.8387 18.2619 27.8387 18.8528V30.2944C27.8387 30.4722 27.8178 30.4932 27.6609 30.5559C27.5093 30.6239 20.3922 33.1915 20.3922 33.1915C20.3922 33.1915 20.1046 33.2804 20.0209 33.2804C19.932 33.2804 19.6496 33.1706 19.6496 33.1706C19.6496 33.1706 12.5326 30.603 12.3809 30.535C12.2293 30.467 12.2031 30.4461 12.2031 30.2735V18.8319C12.1613 18.2409 15.7381 17.9324 20 17.9324Z" fill="#98A2B3"/>
<path d="M51.84 26V16.368H48.4V14.8H57.008V16.368H53.568V26H51.84ZM57.466 26V18.112H59.082V19.04H59.338C59.466 18.7093 59.6687 18.4693 59.946 18.32C60.234 18.16 60.586 18.08 61.002 18.08H61.946V19.568H60.938C60.4047 19.568 59.9673 19.7173 59.626 20.016C59.2847 20.304 59.114 20.752 59.114 21.36V26H57.466ZM66.9883 26.224C66.1883 26.224 65.4896 26.0587 64.8923 25.728C64.2949 25.3867 63.8256 24.912 63.4843 24.304C63.1536 23.6853 62.9883 22.9707 62.9883 22.16V21.968C62.9883 21.1467 63.1536 20.432 63.4843 19.824C63.8149 19.2053 64.2736 18.7307 64.8603 18.4C65.4576 18.0587 66.1456 17.888 66.9243 17.888C67.6816 17.888 68.3429 18.0587 68.9083 18.4C69.4843 18.7307 69.9323 19.1947 70.2523 19.792C70.5723 20.3893 70.7323 21.088 70.7323 21.888V22.512H64.6683C64.6896 23.2053 64.9189 23.76 65.3563 24.176C65.8043 24.5813 66.3589 24.784 67.0203 24.784C67.6389 24.784 68.1029 24.6453 68.4123 24.368C68.7323 24.0907 68.9776 23.7707 69.1483 23.408L70.5083 24.112C70.3589 24.4107 70.1403 24.7253 69.8523 25.056C69.5749 25.3867 69.2069 25.664 68.7483 25.888C68.2896 26.112 67.7029 26.224 66.9883 26.224ZM64.6843 21.248H69.0523C69.0096 20.6507 68.7963 20.1867 68.4123 19.856C68.0283 19.5147 67.5269 19.344 66.9083 19.344C66.2896 19.344 65.7829 19.5147 65.3883 19.856C65.0043 20.1867 64.7696 20.6507 64.6843 21.248ZM72.1929 26V23.984L76.8489 19.728V19.504H72.3529V18.112H78.6409V20.144L73.9689 24.4V24.608H78.7689V26H72.1929ZM84.287 26.224C83.4977 26.224 82.7937 26.064 82.175 25.744C81.567 25.4133 81.087 24.944 80.735 24.336C80.383 23.728 80.207 23.008 80.207 22.176V21.936C80.207 21.104 80.383 20.3893 80.735 19.792C81.087 19.184 81.567 18.7147 82.175 18.384C82.7937 18.0533 83.4977 17.888 84.287 17.888C85.0763 17.888 85.7803 18.0533 86.399 18.384C87.0177 18.7147 87.503 19.184 87.855 19.792C88.207 20.3893 88.383 21.104 88.383 21.936V22.176C88.383 23.008 88.207 23.728 87.855 24.336C87.503 24.944 87.0177 25.4133 86.399 25.744C85.7803 26.064 85.0763 26.224 84.287 26.224ZM84.287 24.752C85.0123 24.752 85.599 24.5227 86.047 24.064C86.5057 23.5947 86.735 22.9493 86.735 22.128V21.984C86.735 21.1627 86.511 20.5227 86.063 20.064C85.615 19.5947 85.023 19.36 84.287 19.36C83.5723 19.36 82.9857 19.5947 82.527 20.064C82.079 20.5227 81.855 21.1627 81.855 21.984V22.128C81.855 22.9493 82.079 23.5947 82.527 24.064C82.9857 24.5227 83.5723 24.752 84.287 24.752ZM90.4348 26V18.112H92.0508V19.04H92.3068C92.4348 18.7093 92.6374 18.4693 92.9148 18.32C93.2028 18.16 93.5548 18.08 93.9708 18.08H94.9148V19.568H93.9068C93.3734 19.568 92.9361 19.7173 92.5948 20.016C92.2534 20.304 92.0828 20.752 92.0828 21.36V26H90.4348ZM101.551 26L99.903 14.8H101.631L102.975 24.832H103.231L104.959 14.8H107.983L109.711 24.832H109.967L111.295 14.8H113.023L111.375 26H108.351L106.591 15.824H106.335L104.591 26H101.551ZM117.102 26.224C116.536 26.224 116.03 26.128 115.582 25.936C115.144 25.744 114.792 25.4613 114.526 25.088C114.27 24.7147 114.142 24.2613 114.142 23.728C114.142 23.184 114.27 22.736 114.526 22.384C114.792 22.0213 115.15 21.7493 115.598 21.568C116.056 21.3867 116.574 21.296 117.15 21.296H119.55V20.784C119.55 20.3253 119.411 19.9573 119.134 19.68C118.856 19.4027 118.43 19.264 117.854 19.264C117.288 19.264 116.856 19.3973 116.558 19.664C116.259 19.9307 116.062 20.2773 115.966 20.704L114.43 20.208C114.558 19.7813 114.76 19.3973 115.038 19.056C115.326 18.704 115.704 18.4213 116.174 18.208C116.643 17.9947 117.208 17.888 117.87 17.888C118.894 17.888 119.699 18.1493 120.286 18.672C120.872 19.1947 121.166 19.936 121.166 20.896V24.144C121.166 24.464 121.315 24.624 121.614 24.624H122.286V26H121.054C120.68 26 120.376 25.904 120.142 25.712C119.907 25.52 119.79 25.2587 119.79 24.928V24.88H119.55C119.464 25.04 119.336 25.2267 119.166 25.44C118.995 25.6533 118.744 25.84 118.414 26C118.083 26.1493 117.646 26.224 117.102 26.224ZM117.342 24.864C118.003 24.864 118.536 24.6773 118.942 24.304C119.347 23.92 119.55 23.3973 119.55 22.736V22.576H117.246C116.808 22.576 116.456 22.672 116.19 22.864C115.923 23.0453 115.789 23.3173 115.789 23.68C115.789 24.0427 115.928 24.3307 116.206 24.544C116.483 24.7573 116.862 24.864 117.342 24.864ZM123.888 26V14.8H125.536V26H123.888ZM127.982 26V14.8H129.63V26H127.982ZM135.691 26.224C134.891 26.224 134.193 26.0587 133.595 25.728C132.998 25.3867 132.529 24.912 132.187 24.304C131.857 23.6853 131.691 22.9707 131.691 22.16V21.968C131.691 21.1467 131.857 20.432 132.187 19.824C132.518 19.2053 132.977 18.7307 133.563 18.4C134.161 18.0587 134.849 17.888 135.627 17.888C136.385 17.888 137.046 18.0587 137.611 18.4C138.187 18.7307 138.635 19.1947 138.955 19.792C139.275 20.3893 139.435 21.088 139.435 21.888V22.512H133.371C133.393 23.2053 133.622 23.76 134.059 24.176C134.507 24.5813 135.062 24.784 135.723 24.784C136.342 24.784 136.806 24.6453 137.115 24.368C137.435 24.0907 137.681 23.7707 137.851 23.408L139.211 24.112C139.062 24.4107 138.843 24.7253 138.555 25.056C138.278 25.3867 137.91 25.664 137.451 25.888C136.993 26.112 136.406 26.224 135.691 26.224ZM133.387 21.248H137.755C137.713 20.6507 137.499 20.1867 137.115 19.856C136.731 19.5147 136.23 19.344 135.611 19.344C134.993 19.344 134.486 19.5147 134.091 19.856C133.707 20.1867 133.473 20.6507 133.387 21.248ZM144.098 26C143.618 26 143.234 25.856 142.946 25.568C142.669 25.28 142.53 24.896 142.53 24.416V19.504H140.354V18.112H142.53V15.504H144.178V18.112H146.53V19.504H144.178V24.128C144.178 24.448 144.327 24.608 144.626 24.608H146.274V26H144.098Z" fill="#98A2B3"/>
</svg>
