<svg width="170" height="40" viewBox="0 0 170 40" fill="none" xmlns="http://www.w3.org/2000/svg">
<g clip-path="url(#clip0_867_5735)">
<path fill-rule="evenodd" clip-rule="evenodd" d="M15.2933 11.5907C14.3644 12.7821 13.4727 14.0858 12.6425 15.4875C11.7806 16.9428 11.0431 18.4056 10.431 19.8441C11.0434 21.2838 11.7813 22.7478 12.644 24.2043C13.4746 25.6066 14.3668 26.9109 15.2961 28.1028C16.7947 28.2949 18.3709 28.3978 20 28.3978C21.6292 28.3978 23.2055 28.2949 24.7041 28.1028C25.6339 26.9105 26.5265 25.6057 27.3574 24.2028C28.2198 22.7468 28.9575 21.2833 29.5697 19.8441C28.9578 18.4061 28.2205 16.9438 27.3589 15.4889C26.5283 14.0867 25.6362 12.7826 24.707 11.5908C23.2075 11.3984 21.6303 11.2954 20 11.2954C18.3698 11.2954 16.7927 11.3984 15.2933 11.5907ZM12.7789 12.0105C12.2031 12.8304 11.6475 13.6897 11.1177 14.5843C10.5407 15.5584 10.0152 16.539 9.54215 17.5176C9.04328 16.0436 8.68348 14.6156 8.46384 13.2701C9.76426 12.7615 11.2141 12.3352 12.7789 12.0105ZM16.9356 9.64106C17.9356 9.56334 18.9591 9.52314 20 9.52314C21.0409 9.52314 22.0645 9.56334 23.0644 9.64107C22.0587 8.53817 21.0279 7.56661 19.9998 6.74265C18.9718 7.56666 17.9411 8.53822 16.9356 9.64106ZM18.5241 5.65993C17.0956 6.84974 15.6844 8.28775 14.3481 9.93254C12.1334 10.2619 10.0748 10.7809 8.24885 11.4558C7.98644 7.76108 8.93502 5.21631 10.7126 4.16348C12.5054 3.10163 15.2238 3.50867 18.3718 5.55965C18.4225 5.59269 18.4733 5.62611 18.5241 5.65993ZM21.4754 5.65976C22.9041 6.84955 24.3155 8.28762 25.6521 9.93258C27.8672 10.262 29.9262 10.7812 31.7524 11.4563C32.0153 7.76049 31.0667 5.21501 29.2888 4.162C27.496 3.10015 24.7776 3.50719 21.6296 5.55817C21.5782 5.59163 21.5268 5.6255 21.4754 5.65976ZM33.4699 12.169C33.4862 12.0063 33.5004 11.8447 33.5127 11.6844C33.8135 7.73795 32.8836 4.23136 30.192 2.63713C27.5003 1.04291 23.9783 1.91271 20.6621 4.07326C20.4415 4.217 20.2206 4.36713 19.9996 4.5235C19.7794 4.36767 19.5592 4.21803 19.3392 4.07473C16.0231 1.91419 12.5011 1.04439 9.80943 2.63861C7.11777 4.23284 6.18784 7.73943 6.48874 11.6859C6.50091 11.8455 6.51511 12.0064 6.53132 12.1685C6.38286 12.2375 6.23645 12.3076 6.09215 12.3788C2.54323 14.1311 0 16.7182 0 19.8466C0 22.975 2.54323 25.5621 6.09215 27.3143C6.23595 27.3853 6.38185 27.4552 6.52978 27.5239C6.51359 27.6858 6.49942 27.8464 6.48726 28.0059C6.18637 31.9523 7.11629 35.4589 9.80795 37.0532C12.4996 38.6474 16.0216 37.7776 19.3378 35.617C19.5582 35.4734 19.7789 35.3234 19.9996 35.1672C20.2211 35.324 20.4425 35.4744 20.6636 35.6185C23.9798 37.7791 27.5018 38.6489 30.1934 37.0546C32.8851 35.4604 33.815 31.9538 33.5141 28.0074C33.5019 27.8473 33.4877 27.6859 33.4714 27.5234C33.6189 27.4548 33.7644 27.3851 33.9078 27.3143C37.4568 25.5621 40 22.975 40 19.8466C40 16.7182 37.4568 14.1311 33.9078 12.3788C33.7639 12.3078 33.6179 12.2378 33.4699 12.169ZM31.5372 13.2705C30.2367 12.7618 28.7866 12.3354 27.2215 12.0106C27.7977 12.8309 28.3535 13.6906 28.8837 14.5858C29.4604 15.5595 29.9857 16.5397 30.4586 17.5178C30.9576 16.044 31.3175 14.616 31.5372 13.2705ZM31.4872 19.844C32.2921 17.8363 32.8688 15.8664 33.2078 14.01C36.5212 15.6672 38.2277 17.7804 38.2277 19.8466C38.2277 21.9124 36.5218 24.0253 33.2094 25.6824C32.8702 23.8246 32.293 21.8532 31.4872 19.844ZM30.4589 22.1703C29.9855 23.1497 29.4597 24.1311 28.8822 25.106C28.3516 26.0018 27.7953 26.8622 27.2187 27.6832C28.7854 27.3581 30.237 26.9313 31.5388 26.422C31.3189 25.0753 30.9586 23.6457 30.4589 22.1703ZM31.7539 28.2363C29.9266 28.912 27.866 29.4315 25.6492 29.761C24.3134 31.4047 22.9029 32.8418 21.4752 34.0309C21.5272 34.0655 21.5792 34.0998 21.6311 34.1336C24.7791 36.1846 27.4975 36.5916 29.2903 35.5298C31.068 34.4768 32.0166 31.9317 31.7539 28.2363ZM19.9998 32.9479C21.0269 32.1246 22.0567 31.154 23.0615 30.0523C22.0624 30.1299 21.0399 30.17 20 30.17C18.9601 30.17 17.9376 30.1299 16.9386 30.0523C17.9431 31.154 18.9728 32.1246 19.9998 32.9479ZM12.7817 27.6833C12.2055 26.8627 11.6494 26.0028 11.1191 25.1075C10.5415 24.1322 10.0154 23.1504 9.54189 22.1706C9.04229 23.6461 8.68204 25.0756 8.46224 26.4224C9.76386 26.9316 11.2153 27.3583 12.7817 27.6833ZM8.24732 28.2368C10.0744 28.9123 12.1346 29.4316 14.3511 29.761C15.6865 31.4046 17.0967 32.8416 18.5242 34.0307C18.4729 34.0649 18.4216 34.0987 18.3703 34.1321C15.2223 36.1831 12.5039 36.5901 10.7111 35.5283C8.93367 34.4755 7.98511 31.9311 8.24732 28.2368ZM6.79162 25.6829C7.13073 23.825 7.70781 21.8534 8.51361 19.844C7.70867 17.8361 7.13212 15.866 6.7932 14.0095C3.47913 15.6667 1.77226 17.7802 1.77226 19.8466C1.77226 21.9126 3.47858 24.0258 6.79162 25.6829Z" fill="#98A2B3"/>
<path d="M22.428 22.7262H20.6202V23.9934H19.8582V22.744C19.6632 22.744 19.4594 22.744 19.2467 22.7351V23.9846H18.4847V22.7174C18.3074 22.7174 18.1214 22.7174 17.9441 22.7085H16.9517L17.1023 21.7958C17.1023 21.7958 17.6694 21.8047 17.6517 21.7958C17.8644 21.7958 17.9264 21.6363 17.9353 21.5477V18.1184C17.9087 17.9677 17.8023 17.7816 17.5011 17.7816C17.5099 17.7728 16.9517 17.7816 16.9517 17.7816V16.9664H18.0062C18.1657 16.9664 18.3252 16.9664 18.4935 16.9575V15.7081H19.2556V16.9309C19.4594 16.9309 19.6632 16.9221 19.867 16.9221V15.6992H20.6291V16.9487H22.4457C22.4457 16.9487 22.4457 17.8082 22.4457 17.7639H19.2822V19.3412H21.852V20.1122H19.2822V21.7604H22.295L22.428 22.7262Z" fill="#667085"/>
</g>
<path d="M49.168 26V14.8H56.224V16.368H50.896V19.584H55.776V21.152H50.896V24.432H56.304V26H49.168ZM58.1535 26V14.8H59.8015V26H58.1535ZM65.8633 26.224C65.0633 26.224 64.3646 26.0587 63.7673 25.728C63.1699 25.3867 62.7006 24.912 62.3593 24.304C62.0286 23.6853 61.8633 22.9707 61.8633 22.16V21.968C61.8633 21.1467 62.0286 20.432 62.3593 19.824C62.6899 19.2053 63.1486 18.7307 63.7353 18.4C64.3326 18.0587 65.0206 17.888 65.7993 17.888C66.5566 17.888 67.2179 18.0587 67.7833 18.4C68.3593 18.7307 68.8073 19.1947 69.1273 19.792C69.4473 20.3893 69.6073 21.088 69.6073 21.888V22.512H63.5433C63.5646 23.2053 63.7939 23.76 64.2313 24.176C64.6793 24.5813 65.2339 24.784 65.8953 24.784C66.5139 24.784 66.9779 24.6453 67.2873 24.368C67.6073 24.0907 67.8526 23.7707 68.0233 23.408L69.3833 24.112C69.2339 24.4107 69.0153 24.7253 68.7273 25.056C68.4499 25.3867 68.0819 25.664 67.6233 25.888C67.1646 26.112 66.5779 26.224 65.8633 26.224ZM63.5593 21.248H67.9273C67.8846 20.6507 67.6713 20.1867 67.2873 19.856C66.9033 19.5147 66.4019 19.344 65.7833 19.344C65.1646 19.344 64.6579 19.5147 64.2633 19.856C63.8793 20.1867 63.6446 20.6507 63.5593 21.248ZM75.255 26.224C74.4977 26.224 73.8097 26.064 73.191 25.744C72.583 25.424 72.0977 24.96 71.735 24.352C71.383 23.744 71.207 23.0133 71.207 22.16V21.952C71.207 21.0987 71.383 20.3733 71.735 19.776C72.0977 19.168 72.583 18.704 73.191 18.384C73.8097 18.0533 74.4977 17.888 75.255 17.888C76.0123 17.888 76.6577 18.0267 77.191 18.304C77.7243 18.5813 78.151 18.9493 78.471 19.408C78.8017 19.8667 79.015 20.3733 79.111 20.928L77.511 21.264C77.4577 20.912 77.3457 20.592 77.175 20.304C77.0043 20.016 76.7643 19.7867 76.455 19.616C76.1457 19.4453 75.7563 19.36 75.287 19.36C74.8283 19.36 74.4123 19.4667 74.039 19.68C73.6763 19.8827 73.3883 20.1813 73.175 20.576C72.9617 20.96 72.855 21.4293 72.855 21.984V22.128C72.855 22.6827 72.9617 23.1573 73.175 23.552C73.3883 23.9467 73.6763 24.2453 74.039 24.448C74.4123 24.6507 74.8283 24.752 75.287 24.752C75.9803 24.752 76.5083 24.576 76.871 24.224C77.2337 23.8613 77.463 23.4027 77.559 22.848L79.159 23.216C79.031 23.76 78.8017 24.2613 78.471 24.72C78.151 25.1787 77.7243 25.5467 77.191 25.824C76.6577 26.0907 76.0123 26.224 75.255 26.224ZM83.7385 26C83.2585 26 82.8745 25.856 82.5865 25.568C82.3092 25.28 82.1705 24.896 82.1705 24.416V19.504H79.9945V18.112H82.1705V15.504H83.8185V18.112H86.1705V19.504H83.8185V24.128C83.8185 24.448 83.9678 24.608 84.2665 24.608H85.9145V26H83.7385ZM88.1066 26V18.112H89.7226V19.04H89.9786C90.1066 18.7093 90.3093 18.4693 90.5866 18.32C90.8746 18.16 91.2266 18.08 91.6426 18.08H92.5866V19.568H91.5786C91.0453 19.568 90.608 19.7173 90.2666 20.016C89.9253 20.304 89.7546 20.752 89.7546 21.36V26H88.1066ZM97.3181 26.144C96.7208 26.144 96.1875 26.0107 95.7181 25.744C95.2488 25.4773 94.8808 25.0987 94.6141 24.608C94.3475 24.1173 94.2141 23.5307 94.2141 22.848V18.112H95.8621V22.736C95.8621 23.4187 96.0328 23.9253 96.3741 24.256C96.7155 24.576 97.1901 24.736 97.7981 24.736C98.4701 24.736 99.0088 24.512 99.4141 24.064C99.8301 23.6053 100.038 22.9493 100.038 22.096V18.112H101.686V26H100.07V24.816H99.8141C99.6648 25.136 99.3981 25.44 99.0141 25.728C98.6301 26.0053 98.0648 26.144 97.3181 26.144ZM104.122 26V18.112H105.738V19.04H105.994C106.144 18.7627 106.384 18.5173 106.714 18.304C107.045 18.0907 107.493 17.984 108.058 17.984C108.645 17.984 109.114 18.1067 109.466 18.352C109.829 18.5867 110.101 18.8907 110.282 19.264H110.538C110.72 18.9013 110.981 18.5973 111.322 18.352C111.674 18.1067 112.17 17.984 112.81 17.984C113.322 17.984 113.776 18.0907 114.17 18.304C114.565 18.5067 114.88 18.816 115.114 19.232C115.349 19.6373 115.466 20.144 115.466 20.752V26H113.818V20.88C113.818 20.4 113.685 20.032 113.418 19.776C113.162 19.5093 112.794 19.376 112.314 19.376C111.802 19.376 111.392 19.5413 111.082 19.872C110.773 20.2027 110.618 20.6773 110.618 21.296V26H108.97V20.88C108.97 20.4 108.837 20.032 108.57 19.776C108.314 19.5093 107.946 19.376 107.466 19.376C106.954 19.376 106.544 19.5413 106.234 19.872C105.925 20.2027 105.77 20.6773 105.77 21.296V26H104.122ZM122.77 26L121.122 14.8H122.85L124.194 24.832H124.45L126.178 14.8H129.202L130.93 24.832H131.186L132.514 14.8H134.242L132.594 26H129.57L127.81 15.824H127.554L125.81 26H122.77ZM138.32 26.224C137.755 26.224 137.248 26.128 136.8 25.936C136.363 25.744 136.011 25.4613 135.744 25.088C135.488 24.7147 135.36 24.2613 135.36 23.728C135.36 23.184 135.488 22.736 135.744 22.384C136.011 22.0213 136.368 21.7493 136.816 21.568C137.275 21.3867 137.792 21.296 138.368 21.296H140.768V20.784C140.768 20.3253 140.63 19.9573 140.352 19.68C140.075 19.4027 139.648 19.264 139.072 19.264C138.507 19.264 138.075 19.3973 137.776 19.664C137.478 19.9307 137.28 20.2773 137.184 20.704L135.648 20.208C135.776 19.7813 135.979 19.3973 136.256 19.056C136.544 18.704 136.923 18.4213 137.392 18.208C137.862 17.9947 138.427 17.888 139.088 17.888C140.112 17.888 140.918 18.1493 141.504 18.672C142.091 19.1947 142.384 19.936 142.384 20.896V24.144C142.384 24.464 142.534 24.624 142.832 24.624H143.504V26H142.272C141.899 26 141.595 25.904 141.36 25.712C141.126 25.52 141.008 25.2587 141.008 24.928V24.88H140.768C140.683 25.04 140.555 25.2267 140.384 25.44C140.214 25.6533 139.963 25.84 139.632 26C139.302 26.1493 138.864 26.224 138.32 26.224ZM138.56 24.864C139.222 24.864 139.755 24.6773 140.16 24.304C140.566 23.92 140.768 23.3973 140.768 22.736V22.576H138.464C138.027 22.576 137.675 22.672 137.408 22.864C137.142 23.0453 137.008 23.3173 137.008 23.68C137.008 24.0427 137.147 24.3307 137.424 24.544C137.702 24.7573 138.08 24.864 138.56 24.864ZM145.107 26V14.8H146.755V26H145.107ZM149.2 26V14.8H150.848V26H149.2ZM156.91 26.224C156.11 26.224 155.411 26.0587 154.814 25.728C154.217 25.3867 153.747 24.912 153.406 24.304C153.075 23.6853 152.91 22.9707 152.91 22.16V21.968C152.91 21.1467 153.075 20.432 153.406 19.824C153.737 19.2053 154.195 18.7307 154.782 18.4C155.379 18.0587 156.067 17.888 156.846 17.888C157.603 17.888 158.265 18.0587 158.83 18.4C159.406 18.7307 159.854 19.1947 160.174 19.792C160.494 20.3893 160.654 21.088 160.654 21.888V22.512H154.59C154.611 23.2053 154.841 23.76 155.278 24.176C155.726 24.5813 156.281 24.784 156.942 24.784C157.561 24.784 158.025 24.6453 158.334 24.368C158.654 24.0907 158.899 23.7707 159.07 23.408L160.43 24.112C160.281 24.4107 160.062 24.7253 159.774 25.056C159.497 25.3867 159.129 25.664 158.67 25.888C158.211 26.112 157.625 26.224 156.91 26.224ZM154.606 21.248H158.974C158.931 20.6507 158.718 20.1867 158.334 19.856C157.95 19.5147 157.449 19.344 156.83 19.344C156.211 19.344 155.705 19.5147 155.31 19.856C154.926 20.1867 154.691 20.6507 154.606 21.248ZM165.317 26C164.837 26 164.453 25.856 164.165 25.568C163.887 25.28 163.749 24.896 163.749 24.416V19.504H161.573V18.112H163.749V15.504H165.397V18.112H167.749V19.504H165.397V24.128C165.397 24.448 165.546 24.608 165.845 24.608H167.493V26H165.317Z" fill="#98A2B3"/>
<defs>
<clipPath id="clip0_867_5735">
<rect width="40" height="40" fill="white"/>
</clipPath>
</defs>
</svg>
