<svg height="auto" viewBox="0 0 2000 1000" xmlns="http://www.w3.org/2000/svg"><path d="M0 455.796c21-18.443 63-152.204 105-92.216 42 59.987 63 377.577 105 392.154 42 14.577 63-260.657 105-319.27s63-23.968 105 26.204 63 168.649 105 224.655 63 84.646 105 55.374 63-143.019 105-201.735c42-58.716 63-15.797 105-91.845s63-268.348 105-288.395c42-20.046 63 141.686 105 188.163 42 46.476 63-1.105 105 44.22 42 45.326 63 157.277 105 182.408s63 35.7 105-56.752 63-420.185 105-405.508c42 14.676 63 454.347 105 478.89 42 24.543 63-273.433 105-356.175 42-82.742 63-60.905 105-57.534 42 3.371 63 47.713 105 74.389 42 26.675 84 47.191 105 58.99l5 688.187H0Z" fill="#444cf71a"/><path d="M0 455.796c21-18.443 63-152.204 105-92.216 42 59.987 63 377.577 105 392.154 42 14.577 63-260.657 105-319.27s63-23.968 105 26.204 63 168.649 105 224.655 63 84.646 105 55.374 63-143.019 105-201.735c42-58.716 63-15.797 105-91.845s63-268.348 105-288.395c42-20.046 63 141.686 105 188.163 42 46.476 63-1.105 105 44.22 42 45.326 63 157.277 105 182.408s63 35.7 105-56.752 63-420.185 105-405.508c42 14.676 63 454.347 105 478.89 42 24.543 63-273.433 105-356.175 42-82.742 63-60.905 105-57.534 42 3.371 63 47.713 105 74.389 42 26.675 84 47.191 105 58.99" fill="none" stroke="#444cf7" stroke-width="4"/><g fill="#444cf7"><circle cy="455.796" r="8"/><circle cx="105" cy="363.58" r="8"/><circle cx="210" cy="755.734" r="8"/><circle cx="315" cy="436.464" r="8"/><circle cx="420" cy="462.668" r="8"/><circle cx="525" cy="687.323" r="8"/><circle cx="630" cy="742.697" r="8"/><circle cx="735" cy="540.962" r="8"/><circle cx="840" cy="449.117" r="8"/><circle cx="945" cy="160.722" r="8"/><circle cx="1050" cy="348.885" r="8"/><circle cx="1155" cy="393.106" r="8"/><circle cx="1260" cy="575.513" r="8"/><circle cx="1365" cy="518.761" r="8"/><circle cx="1470" cy="113.253" r="8"/><circle cx="1575" cy="592.143" r="8"/><circle cx="1680" cy="235.968" r="8"/><circle cx="1785" cy="178.434" r="8"/><circle cx="1890" cy="252.823" r="8"/><circle cx="1995" cy="311.812" r="8"/></g></svg>