<svg height="auto" viewBox="0 0 2000 1000" xmlns="http://www.w3.org/2000/svg"><path d="M0 1000h80V459.796q0-4-4-4H4q-4 0-4 4ZM100 1000h80V367.58q0-4-4-4h-72q-4 0-4 4ZM200 1000h80V759.734q0-4-4-4h-72q-4 0-4 4ZM300 1000h80V440.464q0-4-4-4h-72q-4 0-4 4ZM400 1000h80V466.668q0-4-4-4h-72q-4 0-4 4ZM500 1000h80V691.323q0-4-4-4h-72q-4 0-4 4ZM600 1000h80V746.697q0-4-4-4h-72q-4 0-4 4ZM700 1000h80V544.962q0-4-4-4h-72q-4 0-4 4ZM800 1000h80V453.117q0-4-4-4h-72q-4 0-4 4ZM900 1000h80V164.722q0-4-4-4h-72q-4 0-4 4ZM1000 1000h80V352.885q0-4-4-4h-72q-4 0-4 4ZM1100 1000h80V397.106q0-4-4-4h-72q-4 0-4 4ZM1200 1000h80V579.513q0-4-4-4h-72q-4 0-4 4ZM1300 1000h80V522.761q0-4-4-4h-72q-4 0-4 4ZM1400 1000h80V117.253q0-4-4-4h-72q-4 0-4 4ZM1500 1000h80V596.143q0-4-4-4h-72q-4 0-4 4ZM1600 1000h80V239.968q0-4-4-4h-72q-4 0-4 4ZM1700 1000h80V182.434q0-4-4-4h-72q-4 0-4 4ZM1800 1000h80V256.823q0-4-4-4h-72q-4 0-4 4ZM1900 1000h80V315.812q0-4-4-4h-72q-4 0-4 4Z" fill="#444cf7"/></svg>