<svg height="auto" viewBox="0 0 2000 1000" xmlns="http://www.w3.org/2000/svg"><path d="M0 998.867c21-9.52 63-27.06 105-47.597 42-20.537 63-47.805 105-55.089 42-7.284 63 37.157 105 18.669 42-18.488 63-86.597 105-111.107 42-24.511 63-11.66 105-11.446 42 .214 63 28.416 105 12.516s63-67.764 105-92.018c42-24.254 63 7.825 105-29.254 42-37.078 63-160.818 105-156.138 42 4.68 63 201.033 105 179.539 42-21.495 63-240.592 105-287.012 42-46.42 63 41.793 105 54.91 42 13.118 63 10.368 105 10.677 42 .309 63-23.439 105-9.133 42 14.305 63 111.433 105 80.66 42-30.773 63-189.995 105-234.526 42-44.531 63 43.326 105 11.87 42-31.456 63-149.247 105-169.15 42-19.904 84 55.706 105 69.632l5 765.13H0Z" fill="#444cf71a"/><path d="M0 998.867c21-9.52 63-27.06 105-47.597 42-20.537 63-47.805 105-55.089 42-7.284 63 37.157 105 18.669 42-18.488 63-86.597 105-111.107 42-24.511 63-11.66 105-11.446 42 .214 63 28.416 105 12.516s63-67.764 105-92.018c42-24.254 63 7.825 105-29.254 42-37.078 63-160.818 105-156.138 42 4.68 63 201.033 105 179.539 42-21.495 63-240.592 105-287.012 42-46.42 63 41.793 105 54.91 42 13.118 63 10.368 105 10.677 42 .309 63-23.439 105-9.133 42 14.305 63 111.433 105 80.66 42-30.773 63-189.995 105-234.526 42-44.531 63 43.326 105 11.87 42-31.456 63-149.247 105-169.15 42-19.904 84 55.706 105 69.632" fill="none" stroke="#444cf7" stroke-width="4"/><g fill="#444cf7"><circle cy="998.867" r="8"/><circle cx="105" cy="951.27" r="8"/><circle cx="210" cy="896.181" r="8"/><circle cx="315" cy="914.85" r="8"/><circle cx="420" cy="803.743" r="8"/><circle cx="525" cy="792.297" r="8"/><circle cx="630" cy="804.813" r="8"/><circle cx="735" cy="712.795" r="8"/><circle cx="840" cy="683.541" r="8"/><circle cx="945" cy="527.403" r="8"/><circle cx="1050" cy="706.942" r="8"/><circle cx="1155" cy="419.93" r="8"/><circle cx="1260" cy="474.841" r="8"/><circle cx="1365" cy="485.517" r="8"/><circle cx="1470" cy="476.384" r="8"/><circle cx="1575" cy="557.044" r="8"/><circle cx="1680" cy="322.518" r="8"/><circle cx="1785" cy="334.388" r="8"/><circle cx="1890" cy="165.237" r="8"/><circle cx="1995" cy="234.87" r="8"/></g></svg>