<svg height="auto" viewBox="0 0 2000 1000" xmlns="http://www.w3.org/2000/svg"><path d="M0 24.323c21 5.191 63 12.2 105 25.959 42 13.76 63 24.498 105 42.838s63 31.31 105 48.863c42 17.552 63 34.782 105 38.9 42 4.118 63-32.278 105-18.312 42 13.965 63 73.797 105 88.14 42 14.341 63-16.926 105-16.432 42 .495 63-9.72 105 18.905 42 28.624 63 120.643 105 124.219 42 3.576 63-121.342 105-106.34 42 15.003 63 129.766 105 181.352 42 51.586 63 93.16 105 76.579 42-16.581 63-138.688 105-159.485 42-20.796 63-18.523 105 55.503s63 305.605 105 314.627c42 9.022 63-287.921 105-269.515 42 18.406 63 345.216 105 361.547 42 16.33 63-274.302 105-279.894 42-5.592 84 201.547 105 251.933l5 196.29H0Z" fill="#444cf71a"/><path d="M0 24.323c21 5.191 63 12.2 105 25.959 42 13.76 63 24.498 105 42.838s63 31.31 105 48.863c42 17.552 63 34.782 105 38.9 42 4.118 63-32.278 105-18.312 42 13.965 63 73.797 105 88.14 42 14.341 63-16.926 105-16.432 42 .495 63-9.72 105 18.905 42 28.624 63 120.643 105 124.219 42 3.576 63-121.342 105-106.34 42 15.003 63 129.766 105 181.352 42 51.586 63 93.16 105 76.579 42-16.581 63-138.688 105-159.485 42-20.796 63-18.523 105 55.503s63 305.605 105 314.627c42 9.022 63-287.921 105-269.515 42 18.406 63 345.216 105 361.547 42 16.33 63-274.302 105-279.894 42-5.592 84 201.547 105 251.933" fill="none" stroke="#444cf7" stroke-width="4"/><g fill="#444cf7"><circle cy="24.323" r="8"/><circle cx="105" cy="50.282" r="8"/><circle cx="210" cy="93.12" r="8"/><circle cx="315" cy="141.983" r="8"/><circle cx="420" cy="180.883" r="8"/><circle cx="525" cy="162.571" r="8"/><circle cx="630" cy="250.71" r="8"/><circle cx="735" cy="234.279" r="8"/><circle cx="840" cy="253.184" r="8"/><circle cx="945" cy="377.403" r="8"/><circle cx="1050" cy="271.064" r="8"/><circle cx="1155" cy="452.415" r="8"/><circle cx="1260" cy="528.994" r="8"/><circle cx="1365" cy="369.509" r="8"/><circle cx="1470" cy="425.012" r="8"/><circle cx="1575" cy="739.639" r="8"/><circle cx="1680" cy="470.124" r="8"/><circle cx="1785" cy="831.671" r="8"/><circle cx="1890" cy="551.777" r="8"/><circle cx="1995" cy="803.71" r="8"/></g></svg>