<svg height="auto" viewBox="0 0 2000 1000" xmlns="http://www.w3.org/2000/svg"><path d="M0 990.652c21-8.49 63-30.372 105-42.446 42-12.075 63-11.27 105-17.927s63-4.32 105-15.356 63-29.794 105-39.821c42-10.027 63 27.298 105-10.313 42-37.61 63-144.456 105-177.74 42-33.283 63 21.972 105 11.323 42-10.648 63-67.33 105-64.566 42 2.764 63 89.57 105 78.39 42-11.182 63-107.095 105-134.297 42-27.203 63-.936 105-1.717 42-.78 63 32.186 105-2.188s63-115.471 105-169.683c42-54.21 63-125.395 105-101.373 42 24.021 63 227.188 105 221.481 42-5.707 63-214.752 105-250.014 42-35.263 63 52.87 105 73.704 42 20.833 63 44.548 105 30.464 42-14.084 84-80.706 105-100.883l5 722.31H0Z" fill="#444cf71a"/><path d="M0 990.652c21-8.49 63-30.372 105-42.446 42-12.075 63-11.27 105-17.927s63-4.32 105-15.356 63-29.794 105-39.821c42-10.027 63 27.298 105-10.313 42-37.61 63-144.456 105-177.74 42-33.283 63 21.972 105 11.323 42-10.648 63-67.33 105-64.566 42 2.764 63 89.57 105 78.39 42-11.182 63-107.095 105-134.297 42-27.203 63-.936 105-1.717 42-.78 63 32.186 105-2.188s63-115.471 105-169.683c42-54.21 63-125.395 105-101.373 42 24.021 63 227.188 105 221.481 42-5.707 63-214.752 105-250.014 42-35.263 63 52.87 105 73.704 42 20.833 63 44.548 105 30.464 42-14.084 84-80.706 105-100.883" fill="none" stroke="#444cf7" stroke-width="4"/><g fill="#444cf7"><circle cy="990.652" r="8"/><circle cx="105" cy="948.206" r="8"/><circle cx="210" cy="930.279" r="8"/><circle cx="315" cy="914.923" r="8"/><circle cx="420" cy="875.102" r="8"/><circle cx="525" cy="864.789" r="8"/><circle cx="630" cy="687.049" r="8"/><circle cx="735" cy="698.372" r="8"/><circle cx="840" cy="633.806" r="8"/><circle cx="945" cy="712.195" r="8"/><circle cx="1050" cy="577.899" r="8"/><circle cx="1155" cy="576.182" r="8"/><circle cx="1260" cy="573.994" r="8"/><circle cx="1365" cy="404.311" r="8"/><circle cx="1470" cy="302.938" r="8"/><circle cx="1575" cy="524.419" r="8"/><circle cx="1680" cy="274.405" r="8"/><circle cx="1785" cy="348.109" r="8"/><circle cx="1890" cy="378.573" r="8"/><circle cx="1995" cy="277.69" r="8"/></g></svg>